<svg width="100" height="100" viewBox="0 0 100 100" fill="none" xmlns="http://www.w3.org/2000/svg">
<path d="M50.0001 71.6666C61.9663 71.6666 71.6667 61.9661 71.6667 50C71.6667 38.0339 61.9663 28.3334 50.0001 28.3334C38.034 28.3334 28.3335 38.0339 28.3335 50C28.3335 61.9661 38.034 71.6666 50.0001 71.6666Z" fill="white"/>
<path d="M18.3333 1.6666H1.6665V15H9.99991H18.3333V1.6666Z" fill="white"/>
<path d="M98.3333 1.6666H81.6665V15H89.9999H98.3333V1.6666Z" fill="white"/>
<path d="M18.3333 78.3334H1.6665V91.6666H9.99991H18.3333V78.3334Z" fill="white"/>
<path d="M98.3333 78.3334H81.6665V91.6666H89.9999H98.3333V78.3334Z" fill="white"/>
<path d="M73.3333 50C73.3333 37.1133 62.8867 26.6666 49.9999 26.6666C37.1132 26.6666 26.6665 37.1133 26.6665 50C26.6665 62.8867 37.1132 73.3334 49.9999 73.3334C62.8816 73.3199 73.3199 62.8816 73.3333 50ZM49.9999 70C47.5966 70 45.0333 66.9367 43.3915 61.8834C45.5298 61.7451 47.7433 61.6668 49.9999 61.6668C52.2566 61.6668 54.4698 61.7451 56.6083 61.8834C54.9665 66.9367 52.4032 70 49.9999 70ZM49.9999 58.3334C47.4482 58.3334 44.9366 58.4234 42.5249 58.5984C42.055 56.315 41.78 53.9967 41.705 51.6668H58.295C58.22 53.9969 57.945 56.315 57.4751 58.5984C55.0632 58.4234 52.5517 58.3334 49.9999 58.3334ZM49.9999 30C52.4032 30 54.9665 33.0633 56.6083 38.1166C54.47 38.2549 52.2566 38.3332 49.9999 38.3332C47.7433 38.3332 45.53 38.2549 43.3915 38.1166C45.0333 33.0633 47.5966 30 49.9999 30ZM49.9999 41.6666C52.5517 41.6666 55.0632 41.5766 57.4749 41.4016C57.9449 43.685 58.2199 46.0033 58.2949 48.3332H41.705C41.78 46.0031 42.055 43.685 42.5249 41.4016C44.9366 41.5768 47.4482 41.6666 49.9999 41.6666ZM61.6267 48.3334C61.5517 45.9018 61.28 43.4801 60.8101 41.0934C63.1435 40.8383 65.3435 40.4984 67.3435 40.0816C68.7986 42.61 69.6769 45.4266 69.9152 48.3334H61.6267ZM38.3732 48.3334H30.0849C30.3231 45.4268 31.2015 42.6101 32.6565 40.0816C34.6566 40.4982 36.8532 40.8383 39.19 41.0934C38.7198 43.4801 38.4482 45.9018 38.3732 48.3334ZM38.3732 51.6666C38.4482 54.0982 38.7198 56.5199 39.1898 58.9066C36.8564 59.1617 34.6564 59.5016 32.6564 59.9184C31.2013 57.39 30.323 54.5734 30.0847 51.6666H38.3732ZM61.6267 51.6666H69.915C69.6767 54.5732 68.7984 57.3898 67.3433 59.9184C65.3433 59.5018 63.1466 59.1617 60.8099 58.9066C61.28 56.5199 61.5517 54.0982 61.6267 51.6666ZM65.2533 37.0949C63.6099 37.3916 61.8466 37.6398 59.99 37.8332C59.3333 35.5232 58.3382 33.3232 57.04 31.3031C60.2249 32.5051 63.0517 34.4982 65.2533 37.0949ZM42.9599 31.3033C41.6616 33.3232 40.6665 35.5232 40.0099 37.8334C38.1532 37.64 36.3899 37.3918 34.7466 37.0951C36.9482 34.4982 39.7749 32.5051 42.9599 31.3033ZM34.7466 62.9051C36.3899 62.6084 38.1532 62.3602 40.0099 62.1668C40.6665 64.4768 41.6616 66.6768 42.9599 68.6969C39.7749 67.4949 36.9482 65.5018 34.7466 62.9051ZM57.04 68.6967C58.3382 66.6768 59.3333 64.4768 59.99 62.1666C61.8466 62.36 63.6099 62.6082 65.2533 62.9049C63.0517 65.5018 60.2249 67.4949 57.04 68.6967Z" fill="#0575E6"/>
<path d="M1.6666 16.6666H8.33321V20H1.6666V23.3334H18.3332V20H11.6666V16.6666H18.3332C19.2531 16.6666 19.9998 15.9199 19.9998 15V1.6666C19.9998 0.746681 19.2531 0 18.3332 0H1.6666C0.74668 0 0 0.746681 0 1.6666V15C0 15.9199 0.74668 16.6666 1.6666 16.6666ZM3.3334 3.3334H16.6668V13.3334H3.3334V3.3334Z" fill="#0575E6"/>
<path d="M98.3337 0H81.6671C80.7472 0 80.0005 0.746681 80.0005 1.6666V15C80.0005 15.9199 80.7472 16.6666 81.6671 16.6666H88.3337V20H81.6671V23.3334H98.3337V20H91.6671V16.6666H98.3337C99.2536 16.6666 100 15.9199 100 15V1.6666C100 0.746681 99.2536 0 98.3337 0ZM96.6669 13.3334H83.3335V3.3334H96.6669V13.3334Z" fill="#0575E6"/>
<path d="M20 96.6666H11.6666V93.3332H18.3332C19.2531 93.3332 19.9998 92.5865 19.9998 91.6666V78.3332C19.9998 77.4133 19.2531 76.6666 18.3332 76.6666H1.6666C0.74668 76.6666 0 77.4133 0 78.3332V91.6666C0 92.5865 0.74668 93.3332 1.6666 93.3332H8.33321V96.6666H0V100H20V96.6666ZM3.3334 80H16.6668V90H3.3334V80Z" fill="#0575E6"/>
<path d="M98.3334 76.6666H81.6668C80.7469 76.6666 80.0002 77.4133 80.0002 78.3332V91.6666C80.0002 92.5865 80.7469 93.3332 81.6668 93.3332H88.3334V96.6666H80V100H100V96.6666H91.6666V93.3332H98.3332C99.2531 93.3332 99.9998 92.5865 99.9998 91.6666V78.3332C100 77.4133 99.2533 76.6666 98.3334 76.6666ZM96.6666 90H83.3332V80H96.6666V90Z" fill="#0575E6"/>
<path d="M27.8064 20.0867L22.8063 21.7533C22.3081 21.9166 21.9163 22.3084 21.753 22.8066L20.0864 27.8066L23.253 28.8599L24.0681 26.4183L28.828 31.1783L31.1847 28.8217L26.4247 24.0617L28.8663 23.2467L27.8064 20.0867Z" fill="#0575E6"/>
<path d="M77.1935 21.7533L72.1935 20.0867L71.1401 23.2533L73.5817 24.0683L68.8218 28.8283L71.1784 31.1849L75.9384 26.425L76.7534 28.8666L79.92 27.8133L78.2534 22.8133C78.0901 22.3099 77.6968 21.9166 77.1935 21.7533Z" fill="#0575E6"/>
<path d="M28.8217 68.8217L24.0617 73.5816L23.2467 71.14L20.0801 72.1933L21.7467 77.1933C21.91 77.6916 22.3018 78.0834 22.8 78.2467L27.8 79.9133L28.8533 76.7467L26.4117 75.9316L31.1717 71.1717L28.8217 68.8217Z" fill="#0575E6"/>
<path d="M72.1933 79.9133L77.1933 78.2467C77.6915 78.0834 78.0833 77.6916 78.2466 77.1933L79.9132 72.1933L76.7466 71.14L75.9315 73.5816L71.1716 68.8217L68.8149 71.1783L73.5749 75.9383L71.1333 76.7533L72.1933 79.9133Z" fill="#0575E6"/>
<path d="M51.6669 6.66663H48.3335V20H51.6669V6.66663Z" fill="#0575E6"/>
<path d="M51.6669 0H48.3335V3.3334H51.6669V0Z" fill="#0575E6"/>
<path d="M57.8455 24.5113L61.1782 21.1785L58.8212 18.8215L55.4884 22.1542L57.8455 24.5113Z" fill="#0575E6"/>
<path d="M42.1547 24.5113L44.5117 22.1542L41.179 18.8214L38.8219 21.1785L42.1547 24.5113Z" fill="#0575E6"/>
<path d="M51.6669 80H48.3335V93.3334H51.6669V80Z" fill="#0575E6"/>
<path d="M51.6669 96.6666H48.3335V100H51.6669V96.6666Z" fill="#0575E6"/>
<path d="M58.8207 81.1791L61.1777 78.8221L57.845 75.4893L55.4879 77.8463L58.8207 81.1791Z" fill="#0575E6"/>
<path d="M42.0121 80.3443L44.5117 77.8447L42.1547 75.4876L39.6551 77.9872L42.0121 80.3443Z" fill="#0575E6"/>
<path d="M93.3334 48.3334H80V51.6668H93.3334V48.3334Z" fill="#0575E6"/>
<path d="M99.9999 48.3334H96.6665V51.6668H99.9999V48.3334Z" fill="#0575E6"/>
<path d="M77.8469 44.5112L81.1797 41.1785L78.8226 38.8214L75.4899 42.1542L77.8469 44.5112Z" fill="#0575E6"/>
<path d="M78.8226 61.1781L81.1797 58.821L77.8469 55.4883L75.4899 57.8453L78.8226 61.1781Z" fill="#0575E6"/>
<path d="M19.9999 48.3334H6.6665V51.6668H19.9999V48.3334Z" fill="#0575E6"/>
<path d="M3.3334 48.3334H0V51.6668H3.3334V48.3334Z" fill="#0575E6"/>
<path d="M22.1547 44.5123L24.5117 42.1552L21.179 38.8225L18.8219 41.1795L22.1547 44.5123Z" fill="#0575E6"/>
<path d="M21.1775 61.1773L24.5103 57.8446L22.1532 55.4875L18.8204 58.8203L21.1775 61.1773Z" fill="#0575E6"/>
</svg>
