<svg width="102" height="102" viewBox="0 0 102 102" fill="none" xmlns="http://www.w3.org/2000/svg">
<path d="M24.4381 63.9786H24.4121C23.334 63.9786 22.459 63.0262 22.459 61.851C22.459 60.6759 23.334 59.7234 24.4121 59.7234H24.4381C25.5168 59.7234 26.3911 60.6759 26.3911 61.851C26.3911 63.0262 25.5168 63.9786 24.4381 63.9786Z" fill="#0575E6"/>
<path d="M92.0156 1H9.98436C5.03067 1 1 5.39087 1 10.7872V61.851C1 67.2474 5.03067 71.6383 9.98436 71.6383H40.7157L39.2072 87.5957H34.9591C31.1816 87.5957 28.1088 90.9435 28.1088 95.0582V98.8724C28.1088 100.048 28.9831 101 30.0619 101H71.9381C73.0169 101 73.8912 100.048 73.8912 98.8724V95.0582C73.8912 90.9431 70.8181 87.5957 67.0409 87.5957H62.7928L61.2843 71.6383H92.0156C96.9693 71.6383 101 67.2474 101 61.851V10.7872C101 5.39047 96.9693 1 92.0156 1ZM9.98436 5.25522H92.0156C93.9832 5.25522 95.6921 6.48221 96.5355 8.26966H5.46486C6.30794 6.48181 8.01679 5.25522 9.98436 5.25522ZM69.985 95.0586V96.7448H32.015V95.0586C32.015 93.2902 33.3357 91.8514 34.9591 91.8514H67.0398C68.6639 91.851 69.985 93.2897 69.985 95.0586ZM58.8658 87.5957H43.1342L44.6423 71.6383H57.3577L58.8658 87.5957ZM92.0156 67.3831H9.98436C7.87627 67.3831 6.06446 65.9759 5.29758 63.9787H18.2873C19.3661 63.9787 20.2404 63.0262 20.2404 61.851C20.2404 60.6759 19.3661 59.7234 18.2873 59.7234H4.90615V12.5249H97.0938V59.7234H30.7563C29.6775 59.7234 28.8032 60.6759 28.8032 61.851C28.8032 63.0262 29.6775 63.9787 30.7563 63.9787H96.7024C95.9355 65.9759 94.1237 67.3831 92.0156 67.3831Z" fill="#0575E6" stroke="#0575E6" stroke-width="0.25" stroke-miterlimit="10"/>
<path d="M42.3755 17.6653C39.467 17.6653 37.1021 20.242 37.1021 23.4099C37.1021 24.2219 37.2586 24.9949 37.5385 25.6963L34.0405 29.5069C33.1127 28.9707 32.0562 28.665 30.9355 28.665C28.3728 28.665 26.1465 30.2548 25.0394 32.5756L21.9894 31.9754C21.5009 29.3542 19.3694 27.3752 16.8212 27.3752C13.9128 27.3752 11.5479 29.9515 11.5479 33.1198C11.5479 36.2873 13.9128 38.8645 16.8212 38.8645C18.7033 38.8645 20.3582 37.7832 21.2913 36.1618L24.3439 36.7628C24.7108 40.1089 27.1821 42.7609 30.2704 43.0966L30.9042 46.535C29.5318 47.5729 28.6315 49.3008 28.6315 51.2547C28.6315 54.423 30.9964 56.9993 33.9048 56.9993C36.8122 56.9993 39.1782 54.423 39.1782 51.2547C39.1782 48.3864 37.2382 46.0021 34.7119 45.5773L34.1 42.2567C36.1683 41.0301 37.5753 38.6397 37.5753 35.8986C37.5753 34.6769 37.2954 33.526 36.8025 32.516L40.3105 28.6945C40.9443 28.9897 41.6424 29.1533 42.3751 29.1533C45.2828 29.1533 47.6485 26.577 47.6485 23.4087C47.6481 20.242 45.2831 17.6653 42.3755 17.6653ZM16.8208 34.6096C16.067 34.6096 15.4536 33.9415 15.4536 33.1202C15.4536 32.299 16.067 31.6308 16.8208 31.6308C17.5747 31.6308 18.1881 32.299 18.1881 33.1202C18.1881 33.9411 17.5743 34.6096 16.8208 34.6096ZM28.2006 35.8994C28.2006 34.2573 29.4273 32.9206 30.9351 32.9206C32.4425 32.9206 33.6695 34.2573 33.6695 35.8994C33.6695 37.5419 32.4425 38.8782 30.9351 38.8782C29.4277 38.8778 28.2006 37.5415 28.2006 35.8994ZM33.9045 52.7445C33.1506 52.7445 32.5373 52.0772 32.5373 51.2551C32.5373 50.4339 33.1506 49.7657 33.9045 49.7657C34.6583 49.7657 35.2717 50.4339 35.2717 51.2551C35.2717 52.0772 34.6583 52.7445 33.9045 52.7445ZM42.3755 24.8993C41.6209 24.8993 41.0082 24.2312 41.0082 23.4099C41.0082 22.5887 41.6209 21.9205 42.3755 21.9205C43.1293 21.9205 43.7427 22.5887 43.7427 23.4099C43.7427 24.2312 43.129 24.8993 42.3755 24.8993Z" fill="#0575E6"/>
<path d="M86.209 25.2553H57.4453C56.3665 25.2553 55.4922 24.3029 55.4922 23.1277C55.4922 21.9525 56.3665 21.0001 57.4453 21.0001H86.209C87.2878 21.0001 88.1621 21.9525 88.1621 23.1277C88.1621 24.3025 87.2874 25.2553 86.209 25.2553Z" fill="#0575E6"/>
<path d="M86.209 34.2419H57.4453C56.3665 34.2419 55.4922 33.2895 55.4922 32.1143C55.4922 30.9392 56.3665 29.9867 57.4453 29.9867H86.209C87.2878 29.9867 88.1621 30.9392 88.1621 32.1143C88.1621 33.2895 87.2874 34.2419 86.209 34.2419Z" fill="#0575E6"/>
<path d="M86.209 43.229H57.4453C56.3665 43.229 55.4922 42.2766 55.4922 41.1014C55.4922 39.9262 56.3665 38.9738 57.4453 38.9738H86.209C87.2878 38.9738 88.1621 39.9262 88.1621 41.1014C88.1621 42.2766 87.2874 43.229 86.209 43.229Z" fill="#0575E6"/>
<path d="M86.2353 52.2169H86.2089C85.1302 52.2169 84.2559 51.2636 84.2559 50.0893C84.2559 48.9141 85.1302 47.9617 86.2089 47.9617H86.2353C87.3141 47.9617 88.1884 48.9141 88.1884 50.0893C88.1884 51.2632 87.3141 52.2169 86.2353 52.2169Z" fill="#0575E6"/>
<path d="M79.5933 52.2169H57.4453C56.3665 52.2169 55.4922 51.2644 55.4922 50.0893C55.4922 48.9141 56.3665 47.9617 57.4453 47.9617H79.5933C80.6721 47.9617 81.5464 48.9141 81.5464 50.0893C81.5464 51.264 80.6721 52.2169 79.5933 52.2169Z" fill="#0575E6"/>
</svg>
