<svg width="100" height="100" viewBox="0 0 100 100" fill="none" xmlns="http://www.w3.org/2000/svg">
<path d="M93.125 55.8082L90.2083 54.1919C90.5093 53.6515 90.7902 53.0999 91.0498 52.5351L94.0762 53.9282C93.7833 54.5705 93.4635 55.1969 93.125 55.8082ZM95.3531 50.6284L92.1768 49.6282C92.4902 48.6361 92.7408 47.6247 92.9264 46.6001L96.2068 47.1965C95.9943 48.3578 95.7095 49.5036 95.3531 50.6284ZM96.6218 43.6801L93.2885 43.4888C93.3154 43.0234 93.3285 42.5538 93.3285 42.0818C93.3285 41.5041 93.3089 40.932 93.2698 40.3655L96.595 40.1401C96.6381 40.7822 96.661 41.4299 96.6618 42.0818C96.665 42.6172 96.652 43.1503 96.6218 43.6801ZM92.8702 37.2666C92.6708 36.2453 92.4081 35.237 92.0833 34.2482L95.2498 33.2049C95.6202 34.3272 95.9179 35.4722 96.1433 36.6318L92.8702 37.2666ZM90.922 31.3534C90.4735 30.4143 89.9683 29.5037 89.4083 28.6272L92.2152 26.8337C92.8516 27.828 93.4245 28.8607 93.9314 29.9268L90.922 31.3534ZM87.5635 26.1068C86.8977 25.3053 86.1825 24.546 85.4214 23.8339L87.7002 21.3999C88.562 22.2072 89.3725 23.0674 90.1268 23.9755L87.5635 26.1068ZM83.0135 21.8435C82.1704 21.2339 81.2906 20.6772 80.3783 20.1768L81.9864 17.2568C83.0216 17.8272 84.0193 18.462 84.9748 19.157L83.0135 21.8435ZM77.5554 18.8437C76.586 18.4595 75.5941 18.1374 74.585 17.877L75.4183 14.6485C76.5633 14.9433 77.6879 15.3093 78.7866 15.7456L77.5554 18.8437Z" fill="#0575E6"/>
<path d="M85.0001 41.6668H81.6668C81.6805 37.3113 79.0268 33.3911 74.9765 31.7872L74.3799 31.5472L75.6203 28.4539L76.2151 28.6916C81.5332 30.7984 85.0197 35.9466 85.0001 41.6668Z" fill="#0575E6"/>
<path d="M98.3333 60.0001H88.6052L79.5931 57.0005L76.6667 49.6803V44.1668C76.6552 40.354 73.7785 37.1599 69.9885 36.7505C69.9885 36.522 70 36.2932 70 36.0653V11.6668C70 10.9303 69.5175 10.2818 68.8119 10.0701L35.4785 0.0701561C35.166 -0.0233854 34.834 -0.0233854 34.5215 0.0701561L1.18812 10.0701C0.483333 10.2818 0 10.9303 0 11.6668V36.0653C0 36.8384 0.0520834 37.6018 0.0797917 38.3701C0.122083 39.4955 0.184792 40.6136 0.284792 41.7253C0.301875 41.9149 0.324792 42.0932 0.343333 42.2803C2.39021 63.4417 15.2108 82.05 34.2554 91.4998C34.7242 91.7342 35.2758 91.7342 35.7454 91.4998C38.2381 90.2481 40.6454 88.8306 42.9483 87.2567C43.4717 87.9777 44.1325 88.5873 44.8933 89.0502C43.2292 91.0352 42.8654 93.8038 43.96 96.1515C45.0546 98.4985 47.4096 99.9992 50 100H78.3333C78.6629 100 78.9844 99.9023 79.2585 99.72L88.8329 93.3333H98.3333C99.2537 93.3333 100 92.5871 100 91.6667V61.6667C100 60.7463 99.2537 60.0001 98.3333 60.0001ZM62.2615 51.8115L64.205 56.6667H54.5215C58.0606 50.3182 59.9406 43.1788 59.9885 35.9099L66.6667 33.9072V36.0653C66.6667 36.4218 66.6552 36.7766 66.6488 37.1338C63.6702 38.1918 61.6765 41.0059 61.6667 44.1668V48.7151C61.6658 49.7763 61.8677 50.827 62.2615 51.8115ZM38.3333 63.3334C38.335 65.0359 38.9917 66.6732 40.1669 67.9053C39.5483 68.3553 38.9421 68.8217 38.3031 69.2384L35 71.3517L31.7033 69.2334C24.3131 64.4963 18.6937 57.4505 15.7185 49.192L56.6187 36.9216C56.3908 43.9145 54.3271 50.7245 50.6348 56.6667H45C41.3183 56.6667 38.3333 59.6517 38.3333 63.3334ZM4.23833 46.2288C4.22521 46.1451 4.20979 46.0622 4.19688 45.9815L10.8204 43.9999C11.0165 45.0001 11.2548 46.0003 11.5219 46.9767L4.80312 48.9934C4.58333 48.0372 4.40188 47.1249 4.23833 46.2288ZM3.47 39.5338L10.0619 37.5555C10.1083 38.6003 10.1848 39.6388 10.3052 40.6682L3.72813 42.6418C3.71167 42.492 3.69875 42.3438 3.68167 42.1932C3.59708 41.3338 3.51979 40.4615 3.47 39.5338ZM56.6667 20.0937L13.3333 33.0934V21.1753L35.0569 13.4172L56.6667 19.5899V20.0937ZM56.6667 23.5735V26.7603L13.5604 39.6918C13.4554 38.6566 13.3902 37.6141 13.3635 36.5651L56.6667 23.5735ZM66.6667 27.2405V30.4266L60 32.4268V29.2401L66.6667 27.2405ZM66.6667 23.7599L60 25.7601V22.5735L66.6667 20.5739V23.7599ZM14.0267 43.0315L41.1467 34.8968L56.6667 30.2401V33.427L14.7135 46.0132C14.4498 45.0303 14.2146 44.0382 14.0267 43.0315ZM3.33333 12.907L35 3.40682L66.6667 12.907V17.0933L60 19.0935V18.3335C60 17.5897 59.5069 16.9362 58.7915 16.7318L35.4581 10.0651C35.1246 9.96847 34.7673 9.97889 34.44 10.097L11.1067 18.4303C10.4427 18.6672 10 19.2953 10 20.0001V34.0934L3.33333 36.0938V12.907ZM35 88.1298C20.6446 80.7561 9.99021 67.7571 5.57708 52.2332L12.5219 50.1499C15.7267 59.1715 21.84 66.8709 29.9 72.0369L34.0983 74.7355C34.6477 75.0888 35.3523 75.0888 35.9017 74.7355L40.1 72.0369L40.1433 72.0086C39.5565 74.7738 40.7992 77.605 43.2317 79.0454C42.22 80.245 41.6658 81.7644 41.6667 83.3334C41.67 83.5652 41.6854 83.7965 41.7131 84.0267C39.5696 85.5427 37.3275 86.9142 35 88.1298ZM77.8337 96.6667H50C48.1592 96.6667 46.6667 95.1742 46.6667 93.3333C46.6633 91.6031 47.9973 90.1636 49.7233 90.035C50.6194 89.9423 51.2875 89.1684 51.2483 88.2683C51.2133 87.3731 50.4777 86.6659 49.5817 86.6667H48.3333C46.4925 86.6667 45 85.1742 45 83.3334C45 81.4925 46.4925 80 48.3333 80C49.2537 80 50 79.2538 50 78.3334C50 77.4129 49.2537 76.6667 48.3333 76.6667H46.6667C44.8258 76.6667 43.3333 75.1742 43.3333 73.3334C43.3333 71.4925 44.8258 70 46.6667 70C47.5871 70 48.3333 69.2538 48.3333 68.3334C48.3333 67.413 47.5871 66.6667 46.6667 66.6667H45C43.1592 66.6667 41.6667 65.1742 41.6667 63.3334C41.6667 61.4926 43.1592 60.0001 45 60.0001H66.6667C67.22 60.0009 67.7377 59.7267 68.0477 59.2676C68.3585 58.8094 68.4212 58.2276 68.2154 57.7132L65.3581 50.5738C65.1204 49.983 64.9992 49.3524 65 48.7151V44.1668C65 41.8653 66.8652 40.0001 69.1667 40.0001C71.4681 40.0001 73.3333 41.8653 73.3333 44.1668V50.0001C73.3333 50.2126 73.374 50.4224 73.4512 50.6203L76.7846 58.9536C76.9685 59.4076 77.3421 59.7592 77.8069 59.9155L86.6667 62.8688V90.7748L77.8337 96.6667ZM96.6667 90H90V63.3334H96.6667V90Z" fill="#0575E6"/>
</svg>
