<svg width="1353" height="705" viewBox="0 0 1353 705" fill="none" xmlns="http://www.w3.org/2000/svg">
<path d="M1190.54 387.448H1153.96V397.116H1190.54V387.448Z" fill="#0D3979"/>
<path fill-rule="evenodd" clip-rule="evenodd" d="M539.962 246.045H532.318V238.995H539.962V246.045Z" fill="white"/>
<path fill-rule="evenodd" clip-rule="evenodd" d="M532.318 238.995H525.876V233.154H532.318V238.995Z" fill="white"/>
<path d="M711.396 75.4342C711.396 78.6571 708.557 81.2756 705.063 81.2756C701.569 81.2756 698.729 78.6571 698.729 75.4342C698.729 72.2113 701.569 69.5928 705.063 69.5928C708.557 69.5928 711.396 72.2113 711.396 75.4342Z" fill="#F35B6B"/>
<path d="M77.5273 640.14C77.5273 643.363 74.6883 645.981 71.1941 645.981C67.6999 645.981 64.8608 643.363 64.8608 640.14C64.8608 636.917 67.6999 634.298 71.1941 634.298C74.6883 634.298 77.5273 636.917 77.5273 640.14Z" fill="#F35B6B"/>
<path d="M1122.51 263.468C1122.51 266.691 1119.67 269.31 1116.18 269.31C1112.68 269.31 1109.84 266.691 1109.84 263.468C1109.84 260.245 1112.68 257.627 1116.18 257.627C1119.67 257.627 1122.51 260.245 1122.51 263.468Z" fill="#F35B6B"/>
<path d="M386.108 86.9165C386.108 90.1394 383.269 92.7579 379.775 92.7579C376.281 92.7579 373.442 90.1394 373.442 86.9165C373.442 83.6936 376.281 81.0751 379.775 81.0751C383.269 81.0751 386.108 83.6936 386.108 86.9165Z" fill="#00FFFF"/>
<path d="M419.194 153.287C419.194 156.51 416.355 159.129 412.861 159.129C409.366 159.129 406.527 156.51 406.527 153.287C406.527 150.065 409.366 147.446 412.861 147.446C416.355 147.446 419.194 150.065 419.194 153.287Z" fill="#00FFFF"/>
<path d="M328.782 119.145C328.782 120.756 327.362 122.066 325.615 122.066C323.868 122.066 322.449 120.756 322.449 119.145C322.449 117.533 323.868 116.224 325.615 116.224C327.362 116.224 328.782 117.533 328.782 119.145Z" fill="#00FFFF"/>
<path d="M381.195 145.935C381.195 147.546 379.775 148.856 378.028 148.856C376.281 148.856 374.861 147.546 374.861 145.935C374.861 144.324 376.281 143.014 378.028 143.014C379.775 143.014 381.195 144.324 381.195 145.935Z" fill="#00FFFF"/>
<path d="M299.955 165.272C299.955 166.884 298.535 168.193 296.788 168.193C295.041 168.193 293.622 166.884 293.622 165.272C293.622 163.661 295.041 162.351 296.788 162.351C298.535 162.351 299.955 163.661 299.955 165.272Z" fill="#00FFFF"/>
<g opacity="0.33">
<g opacity="0.33">
<path opacity="0.33" d="M341.557 135.461C348.655 135.461 354.442 140.799 354.442 147.345C354.442 153.892 348.655 159.23 341.557 159.23C334.46 159.23 328.672 153.892 328.672 147.345C328.782 140.698 334.46 135.461 341.557 135.461Z" fill="#00FFFF"/>
</g>
</g>
<path d="M155.819 453.516C155.819 456.739 152.98 459.358 149.486 459.358C145.992 459.358 143.153 456.739 143.153 453.516C143.153 450.293 145.992 447.675 149.486 447.675C152.98 447.675 155.819 450.293 155.819 453.516Z" fill="#FFC17F"/>
<path d="M143.153 414.641C143.153 416.555 141.515 418.065 139.44 418.065C137.365 418.065 135.728 416.555 135.728 414.641C135.728 412.727 137.365 411.217 139.44 411.217C141.515 411.217 143.153 412.727 143.153 414.641Z" fill="#FFC17F"/>
<path d="M117.383 459.358C117.383 461.272 115.745 462.782 113.671 462.782C111.596 462.782 109.958 461.272 109.958 459.358C109.958 457.444 111.596 455.934 113.671 455.934C115.745 455.934 117.383 457.444 117.383 459.358Z" fill="#FFC17F"/>
<path d="M184.1 459.761C184.1 461.674 182.463 463.185 180.388 463.185C178.313 463.185 176.675 461.674 176.675 459.761C176.675 457.847 178.313 456.336 180.388 456.336C182.463 456.336 184.1 457.847 184.1 459.761Z" fill="#FFC17F"/>
<path d="M999.012 579.813C999.012 583.036 996.173 585.654 992.678 585.654C989.184 585.654 986.345 583.036 986.345 579.813C986.345 576.59 989.184 573.971 992.678 573.971C996.173 573.971 999.012 576.59 999.012 579.813Z" fill="#FFC17F"/>
<path d="M994.972 609.724C995.627 611.839 994.207 614.055 991.805 614.659C989.512 615.263 987.11 613.954 986.455 611.738C985.8 609.623 987.219 607.407 989.621 606.803C991.914 606.3 994.317 607.609 994.972 609.724Z" fill="#FFC17F"/>
<path d="M977.61 636.816C977.61 640.039 974.771 642.658 971.277 642.658C967.782 642.658 964.943 640.039 964.943 636.816C964.943 633.593 967.782 630.975 971.277 630.975C974.771 630.975 977.61 633.593 977.61 636.816Z" fill="#FFC17F"/>
<path d="M1030.02 595.725C1030.02 597.034 1028.82 598.142 1027.4 598.142C1025.98 598.142 1024.78 597.034 1024.78 595.725C1024.78 594.416 1025.98 593.308 1027.4 593.308C1028.82 593.308 1030.02 594.416 1030.02 595.725Z" fill="#FFC17F"/>
<path d="M955.662 595.725C955.662 597.034 954.461 598.142 953.042 598.142C951.622 598.142 950.421 597.034 950.421 595.725C950.421 594.416 951.622 593.308 953.042 593.308C954.461 593.308 955.662 594.416 955.662 595.725Z" fill="#FFC17F"/>
<path d="M323.868 631.176C323.868 634.399 321.029 637.018 317.535 637.018C314.041 637.018 311.202 634.399 311.202 631.176C311.202 627.954 314.041 625.335 317.535 625.335C321.029 625.335 323.868 627.954 323.868 631.176Z" fill="#F5ACFF"/>
<path d="M366.235 624.126C366.235 626.443 364.161 628.356 361.649 628.356C359.138 628.356 357.063 626.443 357.063 624.126C357.063 621.81 359.138 619.896 361.649 619.896C364.161 619.896 366.235 621.81 366.235 624.126Z" fill="#F5ACFF"/>
<path d="M407.62 612.444C407.62 614.76 405.545 616.674 403.033 616.674C400.522 616.674 398.447 614.76 398.447 612.444C398.447 610.127 400.522 608.214 403.033 608.214C405.545 608.214 407.62 610.127 407.62 612.444Z" fill="#F5ACFF"/>
<path d="M948.564 143.115C948.564 146.338 945.725 148.957 942.231 148.957C938.737 148.957 935.898 146.338 935.898 143.115C935.898 139.892 938.737 137.274 942.231 137.274C945.725 137.274 948.564 139.892 948.564 143.115Z" fill="#F5ACFF"/>
<path d="M967.564 164.97C967.564 168.193 964.725 170.812 961.231 170.812C957.736 170.812 954.897 168.193 954.897 164.97C954.897 161.748 957.736 159.129 961.231 159.129C964.725 159.129 967.564 161.748 967.564 164.97Z" fill="#F5ACFF"/>
<path d="M1045.53 83.0894C1045.53 85.8087 1043.13 88.1251 1040.07 88.1251C1037.12 88.1251 1034.61 85.9094 1034.61 83.0894C1034.61 80.3701 1037.01 78.0537 1040.07 78.0537C1043.13 78.0537 1045.53 80.3701 1045.53 83.0894Z" fill="#F5ACFF"/>
<path d="M1060.05 113.707C1060.05 116.93 1057.21 119.548 1053.72 119.548C1050.22 119.548 1047.38 116.93 1047.38 113.707C1047.38 110.484 1050.22 107.865 1053.72 107.865C1057.21 107.865 1060.05 110.484 1060.05 113.707Z" fill="#F5ACFF"/>
<g opacity="0.5">
<g opacity="0.5">
<path opacity="0.5" d="M278.225 638.327C278.225 646.888 270.691 653.736 261.519 653.736C252.237 653.736 244.812 646.787 244.812 638.327C244.812 629.867 252.346 622.918 261.519 622.918C270.691 622.918 278.225 629.867 278.225 638.327Z" fill="#F5ACFF"/>
</g>
</g>
<g opacity="0.5">
<g opacity="0.5">
<path opacity="0.5" d="M1005.24 125.793C1005.24 130.828 1000.87 134.857 995.408 134.857C989.949 134.857 985.581 130.828 985.581 125.793C985.581 120.757 989.949 116.728 995.408 116.728C1000.87 116.728 1005.24 120.757 1005.24 125.793Z" fill="#F5ACFF"/>
</g>
</g>
<path d="M661.495 151.575C661.495 154.798 658.656 157.416 655.161 157.416C651.667 157.416 648.828 154.798 648.828 151.575C648.828 148.352 651.667 145.733 655.161 145.733C658.656 145.733 661.495 148.352 661.495 151.575Z" fill="#F5ACFF"/>
<path d="M689.339 110.383C689.339 113.606 686.5 116.224 683.006 116.224C679.511 116.224 676.672 113.606 676.672 110.383C676.672 107.16 679.511 104.542 683.006 104.542C686.5 104.542 689.339 107.16 689.339 110.383Z" fill="#F5ACFF"/>
<path d="M77.5273 245.743C77.5273 248.966 74.6883 251.585 71.1941 251.585C67.6999 251.585 64.8608 248.966 64.8608 245.743C64.8608 242.521 67.6999 239.902 71.1941 239.902C74.6883 239.902 77.5273 242.521 77.5273 245.743Z" fill="#F5ACFF"/>
<path d="M1248.19 450.495C1248.19 453.718 1245.35 456.337 1241.86 456.337C1238.36 456.337 1235.52 453.718 1235.52 450.495C1235.52 447.272 1238.36 444.654 1241.86 444.654C1245.35 444.654 1248.19 447.272 1248.19 450.495Z" fill="#00FFFF"/>
<path d="M1285.86 471.443C1285.86 474.666 1283.02 477.285 1279.53 477.285C1276.04 477.285 1273.2 474.666 1273.2 471.443C1273.2 468.221 1276.04 465.602 1279.53 465.602C1283.02 465.602 1285.86 468.221 1285.86 471.443Z" fill="#00FFFF"/>
<path d="M1192.28 459.458C1192.28 461.069 1190.86 462.379 1189.12 462.379C1187.37 462.379 1185.95 461.069 1185.95 459.458C1185.95 457.847 1187.37 456.537 1189.12 456.537C1190.86 456.537 1192.28 457.847 1192.28 459.458Z" fill="#00FFFF"/>
<path d="M1247.86 503.974C1247.86 505.586 1246.44 506.895 1244.7 506.895C1242.95 506.895 1241.53 505.586 1241.53 503.974C1241.53 502.363 1242.95 501.054 1244.7 501.054C1246.44 501.054 1247.86 502.363 1247.86 503.974Z" fill="#00FFFF"/>
<path d="M1295.36 446.668C1295.36 448.279 1293.94 449.588 1292.2 449.588C1290.45 449.588 1289.03 448.279 1289.03 446.668C1289.03 445.056 1290.45 443.747 1292.2 443.747C1293.94 443.747 1295.36 445.056 1295.36 446.668Z" fill="#00FFFF"/>
<g opacity="0.33">
<g opacity="0.33">
<path opacity="0.33" d="M1208.23 480.81C1213.25 480.81 1217.29 484.537 1217.29 489.17C1217.29 493.802 1213.25 497.529 1208.23 497.529C1203.2 497.529 1199.16 493.802 1199.16 489.17C1199.16 484.537 1203.2 480.81 1208.23 480.81Z" fill="#00FFFF"/>
</g>
</g>
<path d="M451.079 597.941C451.079 600.761 448.676 602.977 445.619 602.977C442.561 602.977 440.159 600.761 440.159 597.941C440.159 595.121 442.561 592.905 445.619 592.905C448.676 592.905 451.079 595.222 451.079 597.941Z" fill="#F35B6B"/>
</svg>
